<svg t="1764086188937" class="icon" viewBox="0 0 1024 1024" version="1.1" xmlns="http://www.w3.org/2000/svg" p-id="7017" width="128" height="128"><path d="M384 560a48 48 0 1 1-96 0 48 48 0 0 1 96 0z m304-48a48 48 0 1 0 0 96 48 48 0 0 0 0-96zM928 192v352c0 211.712-186.592 384-416 384S96 755.712 96 544V192a64 64 0 0 1 110.752-43.616l69.248 79.616a444.896 444.896 0 0 1 472.384 0l68.864-79.616A64 64 0 0 1 928 192z m-64 0l-86.24 99.2a32 32 0 0 1-43.232 4.8A355.552 355.552 0 0 0 672 259.008V352a32 32 0 0 1-64 0V236.192a389.696 389.696 0 0 0-64-10.88V352a32 32 0 0 1-64 0V225.312c-21.6 1.856-43.008 5.472-64 10.88V352a32 32 0 0 1-64 0V259.008A355.52 355.52 0 0 0 289.472 296a32 32 0 0 1-43.232-4.672L160 192v352c0 166.624 140.832 304 320 318.688v-81.44l-54.624-54.656a32.064 32.064 0 0 1 0-45.248 32 32 0 0 1 45.28 0L512 722.72l41.376-41.376a31.968 31.968 0 1 1 45.28 45.248L544 781.248v81.44c179.168-14.784 320-152 320-318.688V192z" p-id="7018" fill="#ffffff"></path></svg>