<svg t="1766466785676" class="icon" viewBox="0 0 1024 1024" version="1.1" xmlns="http://www.w3.org/2000/svg" p-id="8519" width="128" height="128"><path d="M526.464 85.717333L512 170.624a256 256 0 0 0-199.936 415.957333c3.669333 4.522667 34.389333 36.394667 39.125333 41.557334 42.538667 46.250667 68.693333 88.576 74.325334 139.861333h172.970666c5.632-51.285333 31.786667-93.610667 74.24-139.818667 4.821333-5.248 35.413333-36.949333 39.125334-41.514666A254.549333 254.549333 0 0 0 768 426.666667l84.906667-14.506667c0.213333 4.821333 0.426667 9.642667 0.426666 14.506667a339.882667 339.882667 0 0 1-74.922666 213.333333c-26.453333 33.024-95.744 85.333333-95.744 149.333333V896a85.333333 85.333333 0 0 1-85.333334 85.333333h-170.666666a85.333333 85.333333 0 0 1-85.333334-85.333333v-106.666667c0-64-69.333333-116.352-95.829333-149.376a341.333333 341.333333 0 0 1 280.96-554.24zM426.666667 895.957333h170.666666v-42.666666h-170.666666v42.666666zM747.946667 14.08a21.632 21.632 0 0 1 40.106666 0l10.837334 26.026667a186.325333 186.325333 0 0 0 96 99.285333l30.634666 13.610667a22.613333 22.613333 0 0 1 0 41.088l-32.426666 14.421333a186.154667 186.154667 0 0 0-94.634667 96l-10.538667 24.149333a21.589333 21.589333 0 0 1-39.850666 0l-10.496-24.106666a186.197333 186.197333 0 0 0-94.72-96.042667l-32.426667-14.421333a22.613333 22.613333 0 0 1 0-41.088l30.634667-13.653334A186.282667 186.282667 0 0 0 737.109333 40.106667l10.794667-26.026667z" p-id="8520" fill="#bfbfbf"></path></svg>