<svg t="1764212083070" class="icon" viewBox="0 0 1024 1024" version="1.1" xmlns="http://www.w3.org/2000/svg" p-id="4693" width="128" height="128"><path d="M870.53 0q40.77 0 76.14 20.98t56.36 56.36q20.99 35.37 20.99 76.14v512q0 41.97-20.99 77.34-20.99 35.37-56.36 55.75-35.37 20.38-76.14 20.38h-256.6l-291.37 182.26q-17.99 10.79-38.98 11.39-20.99 0.6-38.97-9.59-17.98-10.2-28.78-28.18-10.79-17.99-10.79-38.37V818.95h-51.56q-40.77 0-76.14-20.38t-56.36-55.75Q0 707.45 0 665.48v-512q0-40.77 20.98-76.14t56.36-56.36Q112.71 0 153.48 0h717.04z m0 103.12H153.49q-19.18 0-33.57 12.59t-16.79 31.77v518q0 19.19 12.59 33.58 12.59 14.38 31.77 16.78l109.12 1.2q20.38 0 35.37 14.99 14.99 14.99 14.99 35.37v122.3l253-157.07q25.18-15.59 53.96-15.59h256.6q19.18 0 33.57-13.19t16.79-32.37v-518q0-19.18-12.59-33.57t-31.77-16.79h-6zM512.01 205.04q21.58 0 36.57 14.99 14.99 14.99 14.99 36.57v101.92h101.92q21.58 0 36.57 14.99 14.99 14.99 14.99 35.97 0 20.98-14.99 35.97-14.99 14.99-36.57 14.99H563.57v103.12q0 20.38-14.99 35.37-14.99 14.99-36.57 14.99t-36.57-14.99q-14.99-14.99-14.99-35.37V460.44H358.53q-21.58 0-36.57-14.99-14.99-14.99-14.99-35.97 0-20.98 14.99-35.97 14.99-14.99 36.57-14.99h101.92V256.6q0-21.58 14.99-36.57 14.99-14.99 36.57-14.99z" fill="#707070" p-id="4694"></path></svg>