<svg viewBox="0 0 1024 1024" xmlns="http://www.w3.org/2000/svg" version="1.1" width="128" height="128"><path id="ecdblobs_1766895935471_9769" d="M899.925333 172.080762a48.761905 48.761905 0 0 1 0 28.525714l-207.969523 679.448381a48.761905 48.761905 0 0 1-81.115429 20.187429l-150.552381 -150.552381,-96.304762 96.329143a24.380952 24.380952 0 0 1-41.593905-17.237334v-214.966857l275.821715 -243.370667,-355.57181 161.596953,-103.253333 -103.228953a48.761905 48.761905 0 0 1 20.23619-81.091047L838.997333 139.702857a48.761905 48.761905 0 0 1 60.903619 32.353524z" stroke="rgba(0, 0, 0, 0)" stroke-width="1" fill="hsl(0 0.17% 20.62% / 1)" transform-origin="0 0" transform="rotate(0,0,0) &#10;        translate(0,0) &#10;        scale(1,1) &#10;        skewX(0) skewY(0)" fill-opacity="1" stroke-dashoffset="0"/><!----><!----></svg>